<?xml version="1.0" encoding="UTF-8" standalone="no" ?>
<!DOCTYPE svg PUBLIC "-//W3C//DTD SVG 1.1//EN" "http://www.w3.org/Graphics/SVG/1.1/DTD/svg11.dtd">
<svg xmlns="http://www.w3.org/2000/svg" xmlns:xlink="http://www.w3.org/1999/xlink" version="1.1" width="1080" height="1080" viewBox="0 0 1080 1080" xml:space="preserve">
<desc>Created with Fabric.js 5.2.4</desc>
<defs>
</defs>
<g transform="matrix(1 0 0 1 540 540)" id="98c3bc78-e1f4-4bfc-aaf3-09d1b0382483"  >
<rect style="stroke: none; stroke-width: 1; stroke-dasharray: none; stroke-linecap: butt; stroke-dashoffset: 0; stroke-linejoin: miter; stroke-miterlimit: 4; fill: rgb(255,255,255); fill-rule: nonzero; opacity: 1; visibility: hidden;" vector-effect="non-scaling-stroke"  x="-540" y="-540" rx="0" ry="0" width="1080" height="1080" />
</g>
<g transform="matrix(1 0 0 1 540 540)" id="c1fa53f4-7c92-4703-af33-eef5502ed2ae"  >
</g>
<g transform="matrix(3.01 0 0 3.01 989.12 542.14)"  >
<path style="stroke: none; stroke-width: 1; stroke-dasharray: none; stroke-linecap: butt; stroke-dashoffset: 0; stroke-linejoin: miter; stroke-miterlimit: 4; fill: rgb(0,0,0); fill-rule: nonzero; opacity: 1;" vector-effect="non-scaling-stroke"  transform=" translate(-205.36, -54.21)" d="M 205.013 28.5131 C 193.713 28.5131 186.113 33.8131 183.213 42.4131 C 182.913 43.3131 183.413 44.2131 184.313 44.4131 L 192.813 46.7131 C 193.613 46.9131 194.413 46.5131 194.713 45.7131 C 196.213 41.5131 199.713 38.9131 205.013 38.9131 C 211.113 38.9131 215.113 42.2131 215.113 47.7131 C 215.113 49.3131 213.613 50.5131 212.013 50.1131 L 210.613 49.8131 C 207.913 49.1131 205.113 48.8131 202.213 48.8131 C 190.613 48.8131 183.013 54.1131 183.013 64.6131 C 183.013 74.1131 190.713 79.9131 199.213 79.9131 C 205.313 79.9131 209.813 78.2131 213.013 74.8131 C 213.913 73.8131 215.513 74.5131 215.513 75.8131 L 215.513 77.3131 C 215.513 78.2131 216.213 78.9131 217.113 78.9131 L 226.113 78.9131 C 227.013 78.9131 227.713 78.2131 227.713 77.3131 L 227.713 48.4131 C 227.713 35.6131 220.013 28.5131 205.013 28.5131 Z M 215.013 60.6131 C 215.013 66.3131 210.613 69.7131 204.513 69.7131 C 199.213 69.7131 196.513 67.4131 196.513 63.8131 C 196.513 59.9131 199.413 57.9131 204.313 57.9131 C 206.313 57.9131 208.913 58.4131 212.013 59.4131 L 215.013 60.3131 L 215.013 60.6131 Z" stroke-linecap="round" />
</g>
<g transform="matrix(3.01 0 0 3.01 1266.72 541.09)"  >
<path style="stroke: none; stroke-width: 1; stroke-dasharray: none; stroke-linecap: butt; stroke-dashoffset: 0; stroke-linejoin: miter; stroke-miterlimit: 4; fill: rgb(0,0,0); fill-rule: nonzero; opacity: 1;" vector-effect="non-scaling-stroke"  transform=" translate(-297.51, -53.86)" d="M 343.313 28.5131 C 339.013 28.5131 335.313 29.9131 332.413 32.9131 C 330.713 34.7131 327.813 34.5131 326.213 32.7131 C 323.713 30.0131 320.313 28.6131 316.313 28.6131 C 311.213 28.6131 307.413 30.6131 304.913 34.4131 C 304.413 35.2131 304.113 36.0131 303.913 37.0131 L 303.313 40.2131 C 303.213 40.6131 302.613 40.6131 302.513 40.2131 C 300.713 31.5131 294.513 28.7131 287.613 28.7131 C 283.313 28.7131 279.613 30.1131 276.713 33.1131 C 275.013 34.9131 272.113 34.7131 270.413 32.9131 C 267.913 30.2131 264.513 28.8131 260.513 28.8131 C 256.513 28.8131 253.313 30.0131 250.813 32.5131 C 249.913 33.4131 248.313 32.8131 248.313 31.5131 C 248.313 30.6131 247.613 29.9131 246.713 29.9131 L 236.513 29.9131 C 235.613 29.9131 234.913 30.6131 234.913 31.5131 L 234.913 77.6131 C 234.913 78.5131 235.613 79.2131 236.513 79.2131 L 246.713 79.2131 C 247.613 79.2131 248.313 78.5131 248.313 77.6131 L 248.313 49.1131 C 248.313 43.2131 251.313 39.9131 255.613 39.9131 C 259.913 39.9131 262.913 42.8131 262.913 48.1131 L 262.913 77.3131 C 262.913 78.2131 263.613 78.9131 264.513 78.9131 L 274.613 78.9131 C 275.513 78.9131 276.213 78.2131 276.213 77.3131 L 276.213 48.6131 C 276.213 42.9131 279.013 39.5131 283.513 39.5131 C 287.713 39.5131 290.813 42.6131 290.813 48.0131 L 290.813 77.2131 C 290.813 78.1131 291.513 78.8131 292.413 78.8131 L 302.613 78.8131 C 303.513 78.8131 304.213 78.1131 304.213 77.2131 L 304.213 49.1131 C 304.213 43.2131 307.213 39.9131 311.513 39.9131 C 315.813 39.9131 318.813 42.8131 318.813 48.1131 L 318.813 77.3131 C 318.813 78.2131 319.513 78.9131 320.413 78.9131 L 330.513 78.9131 C 331.413 78.9131 332.113 78.2131 332.113 77.3131 L 332.113 48.6131 C 332.113 42.9131 334.913 39.5131 339.413 39.5131 C 343.713 39.5131 346.713 42.6131 346.713 48.0131 L 346.713 77.2131 C 346.713 78.1131 347.413 78.8131 348.313 78.8131 L 358.513 78.8131 C 359.413 78.8131 360.113 78.1131 360.113 77.2131 L 360.113 45.5131 C 359.713 34.7131 353.413 28.5131 343.313 28.5131 Z" stroke-linecap="round" />
</g>
<g transform="matrix(3.01 0 0 3.01 844.22 563.53)"  >
<path style="stroke: none; stroke-width: 1; stroke-dasharray: none; stroke-linecap: butt; stroke-dashoffset: 0; stroke-linejoin: miter; stroke-miterlimit: 4; fill: rgb(0,0,0); fill-rule: nonzero; opacity: 1;" vector-effect="non-scaling-stroke"  transform=" translate(-157.26, -61.31)" d="M 170.213 30.4131 L 159.413 52.8131 C 158.513 54.7131 155.813 54.7131 154.913 52.7131 L 144.813 30.4131 C 144.513 29.8131 144.013 29.5131 143.413 29.5131 L 132.913 29.5131 C 131.813 29.5131 131.013 30.7131 131.513 31.7131 L 149.913 71.1131 C 150.113 71.5131 150.113 72.0131 149.913 72.4131 L 141.113 90.9131 C 140.613 91.9131 141.413 93.1131 142.513 93.1131 L 152.513 93.1131 C 153.113 93.1131 153.613 92.8131 153.913 92.2131 L 183.013 31.7131 C 183.513 30.7131 182.713 29.5131 181.613 29.5131 L 171.613 29.5131 C 171.113 29.5131 170.513 29.9131 170.213 30.4131 Z" stroke-linecap="round" />
</g>
<g transform="matrix(3.01 0 0 3.01 599.05 541.84)"  >
<path style="stroke: rgb(255,255,255); stroke-opacity: 0; stroke-width: 1; stroke-dasharray: none; stroke-linecap: butt; stroke-dashoffset: 0; stroke-linejoin: miter; stroke-miterlimit: 4; fill: rgb(0,0,0); fill-rule: nonzero; opacity: 1;" vector-effect="non-scaling-stroke"  transform=" translate(-75.88, -54.11)" d="M 112.613 35.1131 L 95.613 90.4131 C 91.813 102.713 78.613 109.713 66.313 106.013 L 54.713 102.413 C 44.613 99.3131 38.113 89.9131 38.113 79.8131 C 40.813 79.7131 43.4131 78.9131 45.9131 77.6131 L 60.313 69.9131 C 69.613 65.0131 73.113 53.5131 68.213 44.2131 L 55.313 20.0131 L 56.0131 17.8131 C 59.8131 5.51306 73.013 -1.48693 85.313 2.21307 L 96.9131 5.81306 C 109.413 9.61306 116.413 22.8131 112.613 35.1131 Z" stroke-linecap="round" />
</g>
<g transform="matrix(3.01 0 0 3.01 534.58 529.19)"  >
<path style="stroke: rgb(255,255,255); stroke-opacity: 0; stroke-width: 1; stroke-dasharray: none; stroke-linecap: butt; stroke-dashoffset: 0; stroke-linejoin: miter; stroke-miterlimit: 4; fill: rgb(255,131,137); fill-rule: nonzero; opacity: 1;" vector-effect="non-scaling-stroke"  transform=" translate(-54.48, -49.91)" d="M 60.5131 69.9131 L 46.113 77.6131 C 43.613 78.9131 40.913 79.6131 38.313 79.8131 C 38.313 77.6131 38.613 75.3131 39.313 73.1131 L 55.613 20.0131 L 68.5131 44.2131 C 73.3131 53.5131 69.7131 65.0131 60.5131 69.9131 Z" stroke-linecap="round" />
</g>
<g transform="matrix(3.01 0 0 3.01 453.93 499.09)"  >
<path style="stroke: rgb(255,255,255); stroke-opacity: 0; stroke-width: 1; stroke-dasharray: none; stroke-linecap: butt; stroke-dashoffset: 0; stroke-linejoin: miter; stroke-miterlimit: 4; fill: rgb(255,205,46); fill-rule: nonzero; opacity: 1;" vector-effect="non-scaling-stroke"  transform=" translate(-27.71, -39.92)" d="M 55.4131 20.0131 L 39.1131 73.1131 C 38.4131 75.3131 38.1131 77.6131 38.1131 79.8131 C 30.9131 80.2131 23.813 76.5131 20.313 69.7131 L 2.21306 35.6131 C -2.68694 26.3131 0.813089 14.8131 10.1131 9.91307 L 24.5131 2.21307 C 33.8131 -2.68693 45.3131 0.813068 50.2131 10.1131 L 55.4131 20.0131 Z" stroke-linecap="round" />
</g>
<g transform="matrix(3.01 0 0 3.01 414.79 658.91)"  >
<path style="stroke: rgb(255,255,255); stroke-opacity: 0; stroke-width: 1; stroke-dasharray: none; stroke-linecap: butt; stroke-dashoffset: 0; stroke-linejoin: miter; stroke-miterlimit: 4; fill: rgb(0,0,0); fill-rule: nonzero; opacity: 1;" vector-effect="non-scaling-stroke"  transform=" translate(-14.71, -92.97)" d="M 11.9132 97.9131 C 11.0132 97.4131 10.4131 96.713 9.81311 95.813 C 9.31311 94.913 9.01318 94.013 9.01318 93.013 C 9.01318 92.013 9.31311 91.013 9.81311 90.213 C 10.3131 89.313 11.0132 88.7131 11.9132 88.1131 C 12.8132 87.6131 13.7131 87.313 14.7131 87.313 C 15.7131 87.313 16.7132 87.6131 17.5132 88.1131 C 18.4132 88.6131 19.0132 89.313 19.6132 90.213 C 20.1132 91.113 20.4132 92.013 20.4132 93.013 C 20.4132 94.313 20.0131 95.513 19.2131 96.513 C 18.9131 96.913 18.6131 97.2131 18.3131 97.4131 C 17.3131 98.2131 16.1131 98.6131 14.8131 98.6131 C 13.7131 98.7131 12.8132 98.4131 11.9132 97.9131 Z M 17.1132 97.213 C 17.8132 96.813 18.4131 96.213 18.8131 95.513 C 19.2131 94.813 19.4132 94.0131 19.4132 93.1131 C 19.4132 92.2131 19.2131 91.513 18.8131 90.713 C 18.4131 90.013 17.8132 89.413 17.1132 89.013 C 16.4132 88.613 15.6131 88.4131 14.8131 88.4131 C 14.0131 88.4131 13.2132 88.613 12.5132 89.013 C 11.8132 89.413 11.2131 90.013 10.8131 90.713 C 10.4131 91.413 10.2131 92.2131 10.2131 93.1131 C 10.2131 94.0131 10.4131 94.713 10.8131 95.513 C 11.2131 96.213 11.8132 96.813 12.5132 97.213 C 13.2132 97.613 14.0131 97.813 14.8131 97.813 C 15.6131 97.813 16.4132 97.613 17.1132 97.213 Z M 12.9132 95.6131 C 12.8132 95.5131 12.8131 95.5131 12.8131 95.4131 L 12.8131 90.713 C 12.8131 90.613 12.8132 90.513 12.9132 90.513 C 13.0132 90.413 13.0132 90.4131 13.1132 90.4131 L 15.0132 90.4131 C 15.6132 90.4131 16.1132 90.513 16.4132 90.813 C 16.8132 91.113 16.9132 91.5131 16.9132 92.1131 C 16.9132 92.5131 16.8132 92.8131 16.6132 93.1131 C 16.4132 93.4131 16.2131 93.613 15.8131 93.713 L 16.8131 95.313 C 16.8131 95.413 16.9132 95.413 16.9132 95.513 C 16.9132 95.613 16.9131 95.713 16.8131 95.713 C 16.7131 95.813 16.7132 95.813 16.6132 95.813 L 16.4132 95.813 C 16.2132 95.813 16.1132 95.713 16.0132 95.513 L 14.9132 93.813 L 13.6132 93.813 L 13.6132 95.4131 C 13.6132 95.5131 13.6132 95.6131 13.5132 95.6131 C 13.4132 95.7131 13.4131 95.713 13.3131 95.713 L 13.1132 95.713 C 13.0132 95.713 12.9132 95.7131 12.9132 95.6131 Z M 14.9132 92.9131 C 15.7132 92.9131 16.0132 92.6131 16.0132 92.1131 C 16.0132 91.5131 15.6132 91.313 14.9132 91.313 L 13.6132 91.313 L 13.6132 93.013 L 14.9132 93.013 L 14.9132 92.9131 Z" stroke-linecap="round" />
</g>
</svg>